PathFileType	4	(X/Y/Z)	/Users/niels/Desktop/University/Third Semester/Perception and Action/Exam/Gymnastics Motion Tracking/Code for Gym Tracking/Analyzed Data/Webcam_Backflip/id5_4_trajectory_Sports2D/id5_4_trajectory_Sports2D_px_person00.trc
DataRate	CameraRate	NumFrames	NumMarkers	Units	OrigDataRate	OrigDataStartFrame	OrigNumFrames
29.770992366412216	29.770992366412216	11	22	m	29.770992366412216	32	131
Frame#	Time	Hip			RHip			RKnee			RAnkle			RBigToe			RSmallToe			RHeel			LHip			LKnee			LAnkle			LBigToe			LSmallToe			LHeel			Neck			Head			Nose			RShoulder			RElbow			RWrist			LShoulder			LElbow			LWrist		
		X1	Y1	Z1	X2	Y2	Z2	X3	Y3	Z3	X4	Y4	Z4	X5	Y5	Z5	X6	Y6	Z6	X7	Y7	Z7	X8	Y8	Z8	X9	Y9	Z9	X10	Y10	Z10	X11	Y11	Z11	X12	Y12	Z12	X13	Y13	Z13	X14	Y14	Z14	X15	Y15	Z15	X16	Y16	Z16	X17	Y17	Z17	X18	Y18	Z18	X19	Y19	Z19	X20	Y20	Z20	X21	Y21	Z21	X22	Y22	Z22
32	1.0748717948717947	0.9619277872256916	-0.776557912323207	0.0	0.9592188494322473	-0.7748523717974896	0.0	0.976283689905417	-0.9059025664856551	0.0	0.9509684858850509	-1.0330150032184795	0.0	0.9973867537322706	-1.0593972159596692	0.0	0.9857753475872358	-1.065260614099735	0.0	0.9367613346087927	-1.0494026048364227	0.0	0.962884867804981	-0.772111404015226	0.0	0.9743493783316646	-0.9055095441676434	0.0	0.9520739689125082	-1.0268158958749292	0.0	0.9978716986752656	-1.0538487224613065	0.0	0.9916214395380467	-1.050090062274383	0.0	0.9366695719171162	-1.0399962745981806	0.0	0.9804688588393575	-0.6116146069906628	0.0	1.0422676786360394	-0.5486632633950298	0.0	1.0262278720631568	-0.5796156964555484	0.0	0.976257458704055	-0.6161124581208498	0.0	1.0534857149968353	-0.5771718281031331	0.0	1.1070397817237838	-0.5186117358070209	0.0	0.9736418757936361	-0.6153961532867013	0.0	1.0462507191837405	-0.5687045132775531	0.0	1.1011637253875266	-0.5192915728711752	0.0
33	1.1084615384615384	0.9587407980580233	-0.7760804568810356	0.0	0.9556874541791726	-0.7747159861277668	0.0	0.9752420130214143	-0.9061310999677247	0.0	0.9512982468293374	-1.0326288441747011	0.0	0.9969347464396658	-1.0574347438015856	0.0	0.98523903159299	-1.062878422406474	0.0	0.9371635506541974	-1.0491184356094243	0.0	0.9607318516679667	-0.772267090118538	0.0	0.9733021479484091	-0.9051993497741466	0.0	0.9525978873795766	-1.0262740634628882	0.0	0.9983090037225167	-1.053208752321074	0.0	0.9922668640101676	-1.0493720773760522	0.0	0.9386588277477365	-1.0402212056605706	0.0	0.9822595600906743	-0.6118551781295338	0.0	1.0442049889371596	-0.5505530365494679	0.0	1.0296773127667278	-0.582157778951291	0.0	0.9773866572948132	-0.6174020022485105	0.0	1.0604969997238345	-0.5873392159287067	0.0	1.1189297617958922	-0.5355786382133276	0.0	0.9743206928336727	-0.6164112031105915	0.0	1.0533269491623258	-0.5793546328631939	0.0	1.1135839595404133	-0.5363299352499941	0.0
34	1.1420512820512818	0.9551049416948052	-0.7757117386336858	0.0	0.951812413999813	-0.7747627244973889	0.0	0.9739678586228064	-0.9062714901421874	0.0	0.9515038320910268	-1.0322144061575786	0.0	0.9968939448552042	-1.0551828098620513	0.0	0.9850230197275988	-1.060281741721794	0.0	0.9378017281432042	-1.0489025313542988	0.0	0.9581155633798546	-0.7725117530620996	0.0	0.9718407402312578	-0.9047237844426762	0.0	0.95279921761674	-1.0256307776253055	0.0	0.9988405261149352	-1.0521115978147026	0.0	0.9928493702960001	-1.0481990744252137	0.0	0.9401067871848902	-1.0405041114902542	0.0	0.9844966586736216	-0.6128067818343719	0.0	1.0457305160062917	-0.5527225481741688	0.0	1.0334010900754693	-0.5860967909640736	0.0	0.9790937585253043	-0.6191544971111859	0.0	1.0666674762152442	-0.6012175959635163	0.0	1.1304803066382079	-0.5601305259935215	0.0	0.9757208091507303	-0.6179467398803787	0.0	1.060008025802501	-0.594305049253721	0.0	1.1258146516345744	-0.5608368511143993	0.0
35	1.1756410256410255	0.9512637792496377	-0.7755481276332732	0.0	0.9478175404081952	-0.7749783929984497	0.0	0.9723664784709527	-0.9062617895318282	0.0	0.9514722669786506	-1.031855548643735	0.0	0.9972404808213028	-1.0530535996922878	0.0	0.9852127321336502	-1.0579377369342946	0.0	0.9384171189426384	-1.0487673072522818	0.0	0.9552614472240571	-0.7729367204474776	0.0	0.969987917373541	-0.9042030632922293	0.0	0.9526178532491963	-1.0251090426526157	0.0	0.9992374521121813	-1.0508132603001914	0.0	0.9932592618187872	-1.046806632478415	0.0	0.9407273468658752	-1.04084090061857	0.0	0.9871296535577687	-0.6144790064646444	0.0	1.0470218734642804	-0.5550153392062992	0.0	1.037028165154009	-0.59106037220505	0.0	0.9813959511542166	-0.621307044493781	0.0	1.0707237253265423	-0.6184546123803593	0.0	1.1392418650899614	-0.5920058380774436	0.0	0.9778343410108314	-0.6199572469805285	0.0	1.065082727830388	-0.6129833134795092	0.0	1.1352491738850705	-0.592405812443376	0.0
36	1.209230769230769	0.9475016838047607	-0.7757394346651587	0.0	0.9439845139837929	-0.7754051281427929	0.0	0.9704282586193289	-0.9061790254576375	0.0	0.951169113454858	-1.0318007571606576	0.0	0.9978546133168282	-1.0515466768695727	0.0	0.9857484364651949	-1.056343561495545	0.0	0.9388055891785357	-1.048906330099397	0.0	0.952480452828576	-0.7737170509852065	0.0	0.9678830010643122	-0.9038396226886849	0.0	0.9521576026805992	-1.0249997684850738	0.0	0.9993212599607924	-1.0497232260807188	0.0	0.9935013293992743	-1.0456290545991158	0.0	0.940656020272951	-1.0413494979910356	0.0	0.9900383434354243	-0.6168527335357596	0.0	1.0484528528512007	-0.5575825450312399	0.0	1.0402410330308784	-0.5965788221160172	0.0	0.9842450018166291	-0.6238961406490721	0.0	1.0717473007789513	-0.638186987313058	0.0	1.1430211332756526	-0.629552662873833	0.0	0.9804318006002927	-0.6224344422550782	0.0	1.0674074236203608	-0.6341961695928939	0.0	1.1394612263909405	-0.6293617671685111	0.0
37	1.2428205128205128	0.9440473975224968	-0.776417450755918	0.0	0.9406097235729071	-0.7761430955404742	0.0	0.9682533445755908	-0.9062007514482164	0.0	0.9506368409872227	-1.032379229176285	0.0	0.9986657973839222	-1.0510624490296676	0.0	0.9865812594482695	-1.0558357148229247	0.0	0.9389300705402631	-1.0496072819439768	0.0	0.9499217110146757	-0.7749281196385903	0.0	0.9656661215220147	-0.9038367911665393	0.0	0.9515547200487933	-1.0255496785192528	0.0	0.9991414252292349	-1.0491857759811798	0.0	0.9937159000322007	-1.045096659989019	0.0	0.9402425928563009	-1.042221519527094	0.0	0.9930886679496005	-0.6198266461340959	0.0	1.0503732306148963	-0.5607061861285938	0.0	1.0429854134604226	-0.6022605131346265	0.0	0.9875292606091176	-0.6270140824171456	0.0	1.0692849542437806	-0.6591609074835647	0.0	1.1403608520620976	-0.6700576729671947	0.0	0.9831110167537306	-0.6253335062222452	0.0	1.0660411110665309	-0.6563495736541107	0.0	1.1367517344701652	-0.6689505376685502	0.0
38	1.2764102564102562	0.9410594633904721	-0.777674014604745	0.0	0.9379949003045124	-0.7773111890389749	0.0	0.9660124005851652	-0.9065171543052144	0.0	0.9499803923532962	-1.0337722740124797	0.0	0.9996725594926845	-1.0517698681736534	0.0	0.9877458946218565	-1.0565048633874488	0.0	0.9389192554153205	-1.0510754693599123	0.0	0.947532864311565	-0.7764988902902796	0.0	0.9634383797567365	-0.9043178390629883	0.0	0.9508763192896538	-1.026876493432324	0.0	0.9989554578029983	-1.0494337349253884	0.0	0.9940815450599737	-1.0454870239078493	0.0	0.939769220641955	-1.0436415173118205	0.0	0.9961901714861611	-0.6232166237557494	0.0	1.0530157860507041	-0.5645906050857594	0.0	1.0454886295383146	-0.6079162680603717	0.0	0.9910658869200373	-0.630691887676605	0.0	1.0631862716126785	-0.6799231734085096	0.0	1.1305181304769656	-0.7103761734204351	0.0	0.9854570685723208	-0.6285565632034088	0.0	1.0603166887675035	-0.6777627156942415	0.0	1.1263194134122878	-0.7079699807416693	0.0
39	1.3099999999999998	0.938663853502108	-0.7795776225274795	0.0	0.9364017674768729	-0.7790034224708222	0.0	0.9638844561346456	-0.9072635716381691	0.0	0.9493359412497763	-1.0359041693693352	0.0	1.0008522016477914	-1.0536262382345292	0.0	0.9892123985917698	-1.0582643085401047	0.0	0.938962048414439	-1.0533591511847984	0.0	0.94521888678055	-0.7783443520168448	0.0	0.9612983323214653	-0.9053209219177373	0.0	0.9501488899556092	-1.028966706647706	0.0	0.9990475720997339	-1.0506335388413057	0.0	0.9946790320043751	-1.0468930616548964	0.0	0.93937087430599	-1.0457184702579694	0.0	0.999316127202582	-0.6268539196371988	0.0	1.0564761978411576	-0.5693198641567753	0.0	1.0480842765113958	-0.6135481372244035	0.0	0.9946315290578481	-0.6348419705866948	0.0	1.0534532970916648	-0.6990301168319145	0.0	1.1132378405888348	-0.747483751269446	0.0	0.9872568835345956	-0.6320133324431861	0.0	1.0499386760405531	-0.6969236505016334	0.0	1.108106331421506	-0.7433780840659683	0.0
40	1.3435897435897435	0.9369781947734902	-0.7821075686463977	0.0	0.9359247524321833	-0.7812049165561744	0.0	0.9620159374360334	-0.908496183738745	0.0	0.9488040429193191	-1.0385288268048414	0.0	1.0020974490469157	-1.0564100677903263	0.0	0.9907669136379967	-1.0609015322459212	0.0	0.9391564918326788	-1.0563680594356735	0.0	0.9430237019701438	-0.7804346067622264	0.0	0.9593736064927081	-0.9068374899679866	0.0	0.9494304104974255	-1.0316855513541612	0.0	0.9995481265584916	-1.0527791580376333	0.0	0.9954299929507285	-1.0491833824471546	0.0	0.939127796637913	-1.0484248595381034	0.0	1.0024905111404903	-0.6306568293537623	0.0	1.0607384481809008	-0.5748842127215738	0.0	1.0510484196034862	-0.6192385620289571	0.0	0.9980099270475306	-0.6393065555390934	0.0	1.0402637817314009	-0.7151794931155926	0.0	1.0886697123498388	-0.7787498725937594	0.0	0.9886059367028756	-0.6356589645153378	0.0	1.0351930875596858	-0.7125646135368005	0.0	1.0826798842535612	-0.7725633284828258	0.0
41	1.377179487179487	0.9361196270773688	-0.7850787881146405	0.0	0.9364104865035132	-0.783769674026636	0.0	0.960499810356277	-0.9102033374182319	0.0	0.9484164440995367	-1.0413520558127638	0.0	1.003231777674523	-1.0597013570875324	0.0	0.9921146317417928	-1.064051021085869	0.0	0.9394520882052536	-1.05987801261282	0.0	0.9412445724537152	-0.7827646254172689	0.0	0.9578234334286598	-0.908804095406626	0.0	0.9488266495493027	-1.0347516007229156	0.0	1.0003706547959978	-1.0555536620483297	0.0	0.9961594639386535	-1.0519864497779299	0.0	0.9390895775073359	-1.0515508896704762	0.0	1.0057352699575284	-0.6345842106549902	0.0	1.0657489871153711	-0.5811752433950045	0.0	1.0544871094278718	-0.625013231255718	0.0	1.0010168873786098	-0.6439026082563514	0.0	1.0241151815073724	-0.7272426306709636	0.0	1.0575814669623205	-0.8019824333782689	0.0	0.9898668435108495	-0.6394363078471549	0.0	1.017169468453936	-0.7236688316726457	0.0	1.051438179252542	-0.7934564321945138	0.0
42	1.4107692307692306	0.9361657509925416	-0.7881965407720078	0.0	0.9375113956420456	-0.7865159703108336	0.0	0.9593558631976281	-0.9123210868245686	0.0	0.9481756118761606	-1.0441116517133453	0.0	1.0040597414619732	-1.0629564040030666	0.0	0.9930323978731085	-1.0672350130742663	0.0	0.9397424204609209	-1.0635345996013248	0.0	0.940332171549034	-0.7853184194251047	0.0	0.9567967924722564	-0.911075175911426	0.0	0.9484472059172554	-1.037810663844487	0.0	1.001295833419936	-1.0584204235138552	0.0	0.9967140546878631	-1.0548303998706208	0.0	0.9392032263752249	-1.0547589151593937	0.0	1.0089961639905916	-0.6385364182922079	0.0	1.0714058689211716	-0.5879211424352053	0.0	1.0582936031245767	-0.6306915910389824	0.0	1.0035103900180207	-0.6483901450207512	0.0	1.0059548541249415	-0.7342717300044116	0.0	1.0216558391917552	-0.8154477048662764	0.0	0.9914926430801525	-0.6431658993409961	0.0	0.997734273022385	-0.7295465097981811	0.0	1.0167814350293012	-0.8046982872276067	0.0
